<mxfile host="app.diagrams.net" modified="2022-01-05T09:57:53.097Z" agent="5.0 (X11)" etag="2sus6I6-OH1AIT_uUUnl" version="15.5.8" type="github">
  <diagram id="iOpFVXVJJMTH5zE7klgj" name="Page-1">
    <mxGraphModel dx="1975" dy="1761" grid="1" gridSize="10" guides="1" tooltips="1" connect="1" arrows="1" fold="1" page="1" pageScale="1" pageWidth="850" pageHeight="1100" math="0" shadow="0">
      <root>
        <mxCell id="0" />
        <mxCell id="1" parent="0" />
        <mxCell id="sDTh5_1ZTmzq6oT9WHvg-1" value="AuthService" style="rounded=1;whiteSpace=wrap;html=1;" vertex="1" parent="1">
          <mxGeometry x="70" y="370" width="120" height="60" as="geometry" />
        </mxCell>
        <mxCell id="sDTh5_1ZTmzq6oT9WHvg-2" value="Api" style="rounded=1;whiteSpace=wrap;html=1;" vertex="1" parent="1">
          <mxGeometry x="300" y="360" width="120" height="60" as="geometry" />
        </mxCell>
        <mxCell id="sDTh5_1ZTmzq6oT9WHvg-3" value="" style="endArrow=classic;startArrow=classic;html=1;rounded=0;" edge="1" parent="1" source="sDTh5_1ZTmzq6oT9WHvg-1" target="sDTh5_1ZTmzq6oT9WHvg-2">
          <mxGeometry width="50" height="50" relative="1" as="geometry">
            <mxPoint x="280" y="360" as="sourcePoint" />
            <mxPoint x="330" y="310" as="targetPoint" />
            <Array as="points" />
          </mxGeometry>
        </mxCell>
        <mxCell id="sDTh5_1ZTmzq6oT9WHvg-4" value="&lt;div&gt;RPC&lt;/div&gt;&lt;div&gt;&lt;br&gt;&lt;/div&gt;" style="edgeLabel;html=1;align=center;verticalAlign=middle;resizable=0;points=[];" vertex="1" connectable="0" parent="sDTh5_1ZTmzq6oT9WHvg-3">
          <mxGeometry x="0.0847" y="-1" relative="1" as="geometry">
            <mxPoint as="offset" />
          </mxGeometry>
        </mxCell>
        <mxCell id="sDTh5_1ZTmzq6oT9WHvg-6" value="PlanetService" style="rounded=1;whiteSpace=wrap;html=1;" vertex="1" parent="1">
          <mxGeometry x="300" y="180" width="120" height="60" as="geometry" />
        </mxCell>
        <mxCell id="sDTh5_1ZTmzq6oT9WHvg-7" value="ShipService" style="rounded=1;whiteSpace=wrap;html=1;" vertex="1" parent="1">
          <mxGeometry x="70" y="60" width="120" height="60" as="geometry" />
        </mxCell>
        <mxCell id="sDTh5_1ZTmzq6oT9WHvg-19" value="&lt;div&gt;BuilderService&lt;/div&gt;" style="rounded=1;whiteSpace=wrap;html=1;direction=south;" vertex="1" parent="1">
          <mxGeometry x="290" y="20" width="140" height="60" as="geometry" />
        </mxCell>
        <mxCell id="sDTh5_1ZTmzq6oT9WHvg-23" value="Client" style="rounded=1;whiteSpace=wrap;html=1;" vertex="1" parent="1">
          <mxGeometry x="300" y="480" width="120" height="60" as="geometry" />
        </mxCell>
        <mxCell id="sDTh5_1ZTmzq6oT9WHvg-24" value="" style="endArrow=none;html=1;rounded=0;" edge="1" parent="1" source="sDTh5_1ZTmzq6oT9WHvg-23" target="sDTh5_1ZTmzq6oT9WHvg-2">
          <mxGeometry width="50" height="50" relative="1" as="geometry">
            <mxPoint x="378.82352941176464" y="370.0000000000001" as="sourcePoint" />
            <mxPoint x="461.17647058823536" y="90" as="targetPoint" />
          </mxGeometry>
        </mxCell>
        <mxCell id="sDTh5_1ZTmzq6oT9WHvg-25" value="HTTP" style="edgeLabel;html=1;align=center;verticalAlign=middle;resizable=0;points=[];" vertex="1" connectable="0" parent="sDTh5_1ZTmzq6oT9WHvg-24">
          <mxGeometry x="-0.2965" relative="1" as="geometry">
            <mxPoint as="offset" />
          </mxGeometry>
        </mxCell>
        <mxCell id="sDTh5_1ZTmzq6oT9WHvg-26" value="" style="endArrow=none;html=1;rounded=0;" edge="1" parent="1" source="sDTh5_1ZTmzq6oT9WHvg-19" target="sDTh5_1ZTmzq6oT9WHvg-6">
          <mxGeometry width="50" height="50" relative="1" as="geometry">
            <mxPoint x="378.82352941176464" y="370.0000000000001" as="sourcePoint" />
            <mxPoint x="461.17647058823536" y="90" as="targetPoint" />
          </mxGeometry>
        </mxCell>
        <mxCell id="sDTh5_1ZTmzq6oT9WHvg-40" value="" style="endArrow=none;html=1;rounded=0;" edge="1" parent="1" source="sDTh5_1ZTmzq6oT9WHvg-2" target="sDTh5_1ZTmzq6oT9WHvg-6">
          <mxGeometry width="50" height="50" relative="1" as="geometry">
            <mxPoint x="335.3846153846155" y="110" as="sourcePoint" />
            <mxPoint x="254.61538461538476" y="180" as="targetPoint" />
          </mxGeometry>
        </mxCell>
        <mxCell id="sDTh5_1ZTmzq6oT9WHvg-41" value="&lt;div&gt;RPC&lt;/div&gt;&lt;div&gt;&lt;br&gt;&lt;/div&gt;" style="edgeLabel;html=1;align=center;verticalAlign=middle;resizable=0;points=[];" vertex="1" connectable="0" parent="sDTh5_1ZTmzq6oT9WHvg-40">
          <mxGeometry x="-0.2965" relative="1" as="geometry">
            <mxPoint x="5" as="offset" />
          </mxGeometry>
        </mxCell>
        <mxCell id="sDTh5_1ZTmzq6oT9WHvg-48" value="" style="endArrow=none;html=1;rounded=0;" edge="1" parent="1" source="sDTh5_1ZTmzq6oT9WHvg-6" target="sDTh5_1ZTmzq6oT9WHvg-7">
          <mxGeometry width="50" height="50" relative="1" as="geometry">
            <mxPoint x="326.66666666666697" y="360.0000000000001" as="sourcePoint" />
            <mxPoint x="193.33333333333348" y="239.9999999999999" as="targetPoint" />
          </mxGeometry>
        </mxCell>
        <mxCell id="sDTh5_1ZTmzq6oT9WHvg-49" value="&lt;div&gt;RPC&lt;/div&gt;&lt;div&gt;&lt;br&gt;&lt;/div&gt;" style="edgeLabel;html=1;align=center;verticalAlign=middle;resizable=0;points=[];" vertex="1" connectable="0" parent="sDTh5_1ZTmzq6oT9WHvg-48">
          <mxGeometry x="-0.2965" relative="1" as="geometry">
            <mxPoint x="5" as="offset" />
          </mxGeometry>
        </mxCell>
        <mxCell id="sDTh5_1ZTmzq6oT9WHvg-58" value="PlanetService" style="swimlane;fontStyle=0;childLayout=stackLayout;horizontal=1;startSize=30;horizontalStack=0;resizeParent=1;resizeParentMax=0;resizeLast=0;collapsible=1;marginBottom=0;" vertex="1" parent="1">
          <mxGeometry x="-260" y="-410" width="200" height="270" as="geometry" />
        </mxCell>
        <mxCell id="sDTh5_1ZTmzq6oT9WHvg-65" value="CreatePlanet" style="text;strokeColor=none;fillColor=none;align=left;verticalAlign=middle;spacingLeft=4;spacingRight=4;overflow=hidden;points=[[0,0.5],[1,0.5]];portConstraint=eastwest;rotatable=0;" vertex="1" parent="sDTh5_1ZTmzq6oT9WHvg-58">
          <mxGeometry y="30" width="200" height="30" as="geometry" />
        </mxCell>
        <mxCell id="sDTh5_1ZTmzq6oT9WHvg-66" value="AtackPlanet()" style="text;strokeColor=none;fillColor=none;align=left;verticalAlign=middle;spacingLeft=4;spacingRight=4;overflow=hidden;points=[[0,0.5],[1,0.5]];portConstraint=eastwest;rotatable=0;" vertex="1" parent="sDTh5_1ZTmzq6oT9WHvg-58">
          <mxGeometry y="60" width="200" height="30" as="geometry" />
        </mxCell>
        <mxCell id="sDTh5_1ZTmzq6oT9WHvg-59" value="GetPlanetsList()[]planet" style="text;strokeColor=none;fillColor=none;align=left;verticalAlign=middle;spacingLeft=4;spacingRight=4;overflow=hidden;points=[[0,0.5],[1,0.5]];portConstraint=eastwest;rotatable=0;" vertex="1" parent="sDTh5_1ZTmzq6oT9WHvg-58">
          <mxGeometry y="90" width="200" height="30" as="geometry" />
        </mxCell>
        <mxCell id="sDTh5_1ZTmzq6oT9WHvg-60" value="GetPlanet()planet" style="text;strokeColor=none;fillColor=none;align=left;verticalAlign=middle;spacingLeft=4;spacingRight=4;overflow=hidden;points=[[0,0.5],[1,0.5]];portConstraint=eastwest;rotatable=0;" vertex="1" parent="sDTh5_1ZTmzq6oT9WHvg-58">
          <mxGeometry y="120" width="200" height="30" as="geometry" />
        </mxCell>
        <mxCell id="sDTh5_1ZTmzq6oT9WHvg-61" value="GetFabrics()[]fabrics" style="text;strokeColor=none;fillColor=none;align=left;verticalAlign=middle;spacingLeft=4;spacingRight=4;overflow=hidden;points=[[0,0.5],[1,0.5]];portConstraint=eastwest;rotatable=0;" vertex="1" parent="sDTh5_1ZTmzq6oT9WHvg-58">
          <mxGeometry y="150" width="200" height="30" as="geometry" />
        </mxCell>
        <mxCell id="sDTh5_1ZTmzq6oT9WHvg-64" value="GetShips()[]ships" style="text;strokeColor=none;fillColor=none;align=left;verticalAlign=middle;spacingLeft=4;spacingRight=4;overflow=hidden;points=[[0,0.5],[1,0.5]];portConstraint=eastwest;rotatable=0;" vertex="1" parent="sDTh5_1ZTmzq6oT9WHvg-58">
          <mxGeometry y="180" width="200" height="30" as="geometry" />
        </mxCell>
        <mxCell id="sDTh5_1ZTmzq6oT9WHvg-78" value="MoveShipsToPlanet([]ships...)" style="text;strokeColor=none;fillColor=none;align=left;verticalAlign=middle;spacingLeft=4;spacingRight=4;overflow=hidden;points=[[0,0.5],[1,0.5]];portConstraint=eastwest;rotatable=0;" vertex="1" parent="sDTh5_1ZTmzq6oT9WHvg-58">
          <mxGeometry y="210" width="200" height="30" as="geometry" />
        </mxCell>
        <mxCell id="sDTh5_1ZTmzq6oT9WHvg-62" value="CreateFlot(ship....)" style="text;strokeColor=none;fillColor=none;align=left;verticalAlign=middle;spacingLeft=4;spacingRight=4;overflow=hidden;points=[[0,0.5],[1,0.5]];portConstraint=eastwest;rotatable=0;" vertex="1" parent="sDTh5_1ZTmzq6oT9WHvg-58">
          <mxGeometry y="240" width="200" height="30" as="geometry" />
        </mxCell>
        <mxCell id="sDTh5_1ZTmzq6oT9WHvg-67" value="ShipService" style="swimlane;fontStyle=0;childLayout=stackLayout;horizontal=1;startSize=30;horizontalStack=0;resizeParent=1;resizeParentMax=0;resizeLast=0;collapsible=1;marginBottom=0;" vertex="1" parent="1">
          <mxGeometry x="-460" y="-530" width="140" height="90" as="geometry" />
        </mxCell>
        <mxCell id="sDTh5_1ZTmzq6oT9WHvg-68" value="CreateShip" style="text;strokeColor=none;fillColor=none;align=left;verticalAlign=middle;spacingLeft=4;spacingRight=4;overflow=hidden;points=[[0,0.5],[1,0.5]];portConstraint=eastwest;rotatable=0;" vertex="1" parent="sDTh5_1ZTmzq6oT9WHvg-67">
          <mxGeometry y="30" width="140" height="30" as="geometry" />
        </mxCell>
        <mxCell id="sDTh5_1ZTmzq6oT9WHvg-80" value="SpyPlanet" style="text;strokeColor=none;fillColor=none;align=left;verticalAlign=middle;spacingLeft=4;spacingRight=4;overflow=hidden;points=[[0,0.5],[1,0.5]];portConstraint=eastwest;rotatable=0;" vertex="1" parent="sDTh5_1ZTmzq6oT9WHvg-67">
          <mxGeometry y="60" width="140" height="30" as="geometry" />
        </mxCell>
        <mxCell id="sDTh5_1ZTmzq6oT9WHvg-76" value="FabricService" style="swimlane;fontStyle=0;childLayout=stackLayout;horizontal=1;startSize=30;horizontalStack=0;resizeParent=1;resizeParentMax=0;resizeLast=0;collapsible=1;marginBottom=0;" vertex="1" parent="1">
          <mxGeometry x="-460" y="-350" width="140" height="120" as="geometry" />
        </mxCell>
        <mxCell id="sDTh5_1ZTmzq6oT9WHvg-77" value="Create" style="text;strokeColor=none;fillColor=none;align=left;verticalAlign=middle;spacingLeft=4;spacingRight=4;overflow=hidden;points=[[0,0.5],[1,0.5]];portConstraint=eastwest;rotatable=0;" vertex="1" parent="sDTh5_1ZTmzq6oT9WHvg-76">
          <mxGeometry y="30" width="140" height="30" as="geometry" />
        </mxCell>
        <mxCell id="sDTh5_1ZTmzq6oT9WHvg-82" value="Upgrade()" style="text;strokeColor=none;fillColor=none;align=left;verticalAlign=middle;spacingLeft=4;spacingRight=4;overflow=hidden;points=[[0,0.5],[1,0.5]];portConstraint=eastwest;rotatable=0;" vertex="1" parent="sDTh5_1ZTmzq6oT9WHvg-76">
          <mxGeometry y="60" width="140" height="30" as="geometry" />
        </mxCell>
        <mxCell id="sDTh5_1ZTmzq6oT9WHvg-79" value="Remove" style="text;strokeColor=none;fillColor=none;align=left;verticalAlign=middle;spacingLeft=4;spacingRight=4;overflow=hidden;points=[[0,0.5],[1,0.5]];portConstraint=eastwest;rotatable=0;" vertex="1" parent="sDTh5_1ZTmzq6oT9WHvg-76">
          <mxGeometry y="90" width="140" height="30" as="geometry" />
        </mxCell>
        <mxCell id="sDTh5_1ZTmzq6oT9WHvg-84" value="Planet" style="shape=table;startSize=30;container=1;collapsible=1;childLayout=tableLayout;fixedRows=1;rowLines=0;fontStyle=1;align=center;resizeLast=1;" vertex="1" parent="1">
          <mxGeometry x="-60" y="600" width="180" height="260" as="geometry" />
        </mxCell>
        <mxCell id="sDTh5_1ZTmzq6oT9WHvg-85" value="" style="shape=partialRectangle;collapsible=0;dropTarget=0;pointerEvents=0;fillColor=none;top=0;left=0;bottom=1;right=0;points=[[0,0.5],[1,0.5]];portConstraint=eastwest;" vertex="1" parent="sDTh5_1ZTmzq6oT9WHvg-84">
          <mxGeometry y="30" width="180" height="130" as="geometry" />
        </mxCell>
        <mxCell id="sDTh5_1ZTmzq6oT9WHvg-86" value="" style="shape=partialRectangle;connectable=0;fillColor=none;top=0;left=0;bottom=0;right=0;fontStyle=1;overflow=hidden;" vertex="1" parent="sDTh5_1ZTmzq6oT9WHvg-85">
          <mxGeometry width="30" height="130" as="geometry">
            <mxRectangle width="30" height="130" as="alternateBounds" />
          </mxGeometry>
        </mxCell>
        <mxCell id="sDTh5_1ZTmzq6oT9WHvg-87" value="UniqueID" style="shape=partialRectangle;connectable=0;fillColor=none;top=0;left=0;bottom=0;right=0;align=left;spacingLeft=6;fontStyle=5;overflow=hidden;" vertex="1" parent="sDTh5_1ZTmzq6oT9WHvg-85">
          <mxGeometry x="30" width="150" height="130" as="geometry">
            <mxRectangle width="150" height="130" as="alternateBounds" />
          </mxGeometry>
        </mxCell>
        <mxCell id="sDTh5_1ZTmzq6oT9WHvg-88" value="" style="shape=partialRectangle;collapsible=0;dropTarget=0;pointerEvents=0;fillColor=none;top=0;left=0;bottom=0;right=0;points=[[0,0.5],[1,0.5]];portConstraint=eastwest;" vertex="1" parent="sDTh5_1ZTmzq6oT9WHvg-84">
          <mxGeometry y="160" width="180" height="30" as="geometry" />
        </mxCell>
        <mxCell id="sDTh5_1ZTmzq6oT9WHvg-89" value="" style="shape=partialRectangle;connectable=0;fillColor=none;top=0;left=0;bottom=0;right=0;editable=1;overflow=hidden;" vertex="1" parent="sDTh5_1ZTmzq6oT9WHvg-88">
          <mxGeometry width="30" height="30" as="geometry">
            <mxRectangle width="30" height="30" as="alternateBounds" />
          </mxGeometry>
        </mxCell>
        <mxCell id="sDTh5_1ZTmzq6oT9WHvg-90" value="Row 1" style="shape=partialRectangle;connectable=0;fillColor=none;top=0;left=0;bottom=0;right=0;align=left;spacingLeft=6;overflow=hidden;" vertex="1" parent="sDTh5_1ZTmzq6oT9WHvg-88">
          <mxGeometry x="30" width="150" height="30" as="geometry">
            <mxRectangle width="150" height="30" as="alternateBounds" />
          </mxGeometry>
        </mxCell>
        <mxCell id="sDTh5_1ZTmzq6oT9WHvg-91" value="" style="shape=partialRectangle;collapsible=0;dropTarget=0;pointerEvents=0;fillColor=none;top=0;left=0;bottom=0;right=0;points=[[0,0.5],[1,0.5]];portConstraint=eastwest;" vertex="1" parent="sDTh5_1ZTmzq6oT9WHvg-84">
          <mxGeometry y="190" width="180" height="30" as="geometry" />
        </mxCell>
        <mxCell id="sDTh5_1ZTmzq6oT9WHvg-92" value="" style="shape=partialRectangle;connectable=0;fillColor=none;top=0;left=0;bottom=0;right=0;editable=1;overflow=hidden;" vertex="1" parent="sDTh5_1ZTmzq6oT9WHvg-91">
          <mxGeometry width="30" height="30" as="geometry">
            <mxRectangle width="30" height="30" as="alternateBounds" />
          </mxGeometry>
        </mxCell>
        <mxCell id="sDTh5_1ZTmzq6oT9WHvg-93" value="Row 2" style="shape=partialRectangle;connectable=0;fillColor=none;top=0;left=0;bottom=0;right=0;align=left;spacingLeft=6;overflow=hidden;" vertex="1" parent="sDTh5_1ZTmzq6oT9WHvg-91">
          <mxGeometry x="30" width="150" height="30" as="geometry">
            <mxRectangle width="150" height="30" as="alternateBounds" />
          </mxGeometry>
        </mxCell>
        <mxCell id="sDTh5_1ZTmzq6oT9WHvg-94" value="" style="shape=partialRectangle;collapsible=0;dropTarget=0;pointerEvents=0;fillColor=none;top=0;left=0;bottom=0;right=0;points=[[0,0.5],[1,0.5]];portConstraint=eastwest;" vertex="1" parent="sDTh5_1ZTmzq6oT9WHvg-84">
          <mxGeometry y="220" width="180" height="30" as="geometry" />
        </mxCell>
        <mxCell id="sDTh5_1ZTmzq6oT9WHvg-95" value="" style="shape=partialRectangle;connectable=0;fillColor=none;top=0;left=0;bottom=0;right=0;editable=1;overflow=hidden;" vertex="1" parent="sDTh5_1ZTmzq6oT9WHvg-94">
          <mxGeometry width="30" height="30" as="geometry">
            <mxRectangle width="30" height="30" as="alternateBounds" />
          </mxGeometry>
        </mxCell>
        <mxCell id="sDTh5_1ZTmzq6oT9WHvg-96" value="Row 3" style="shape=partialRectangle;connectable=0;fillColor=none;top=0;left=0;bottom=0;right=0;align=left;spacingLeft=6;overflow=hidden;" vertex="1" parent="sDTh5_1ZTmzq6oT9WHvg-94">
          <mxGeometry x="30" width="150" height="30" as="geometry">
            <mxRectangle width="150" height="30" as="alternateBounds" />
          </mxGeometry>
        </mxCell>
        <mxCell id="sDTh5_1ZTmzq6oT9WHvg-97" value="Planet" style="rounded=1;arcSize=10;whiteSpace=wrap;html=1;align=center;" vertex="1" parent="1">
          <mxGeometry x="260" y="770" width="100" height="40" as="geometry" />
        </mxCell>
        <mxCell id="sDTh5_1ZTmzq6oT9WHvg-106" value="Planet" style="rounded=1;whiteSpace=wrap;html=1;" vertex="1" parent="1">
          <mxGeometry x="580" y="750" width="120" height="60" as="geometry" />
        </mxCell>
        <mxCell id="sDTh5_1ZTmzq6oT9WHvg-107" value="Storage" style="rounded=1;whiteSpace=wrap;html=1;" vertex="1" parent="1">
          <mxGeometry x="890" y="760" width="120" height="60" as="geometry" />
        </mxCell>
        <mxCell id="sDTh5_1ZTmzq6oT9WHvg-108" value="Fabrics" style="rounded=1;whiteSpace=wrap;html=1;" vertex="1" parent="1">
          <mxGeometry x="900" y="860" width="120" height="60" as="geometry" />
        </mxCell>
        <mxCell id="sDTh5_1ZTmzq6oT9WHvg-109" value="Factory" style="rounded=1;whiteSpace=wrap;html=1;" vertex="1" parent="1">
          <mxGeometry x="890" y="660" width="120" height="60" as="geometry" />
        </mxCell>
        <mxCell id="sDTh5_1ZTmzq6oT9WHvg-110" value="" style="endArrow=none;html=1;rounded=0;" edge="1" parent="1" source="sDTh5_1ZTmzq6oT9WHvg-106" target="sDTh5_1ZTmzq6oT9WHvg-109">
          <mxGeometry width="50" height="50" relative="1" as="geometry">
            <mxPoint x="588.6079447087623" y="688.0901234866733" as="sourcePoint" />
            <mxPoint x="792.198790356249" y="626.4444029196679" as="targetPoint" />
          </mxGeometry>
        </mxCell>
        <mxCell id="sDTh5_1ZTmzq6oT9WHvg-111" value="" style="endArrow=none;html=1;rounded=0;" edge="1" parent="1" source="sDTh5_1ZTmzq6oT9WHvg-106" target="sDTh5_1ZTmzq6oT9WHvg-107">
          <mxGeometry width="50" height="50" relative="1" as="geometry">
            <mxPoint x="710" y="772" as="sourcePoint" />
            <mxPoint x="790" y="748" as="targetPoint" />
          </mxGeometry>
        </mxCell>
        <mxCell id="sDTh5_1ZTmzq6oT9WHvg-112" value="" style="endArrow=none;html=1;rounded=0;" edge="1" parent="1" source="sDTh5_1ZTmzq6oT9WHvg-106" target="sDTh5_1ZTmzq6oT9WHvg-108">
          <mxGeometry width="50" height="50" relative="1" as="geometry">
            <mxPoint x="710" y="796" as="sourcePoint" />
            <mxPoint x="790" y="804" as="targetPoint" />
          </mxGeometry>
        </mxCell>
        <mxCell id="sDTh5_1ZTmzq6oT9WHvg-116" value="User" style="rounded=1;whiteSpace=wrap;html=1;" vertex="1" parent="1">
          <mxGeometry x="580" y="540" width="120" height="60" as="geometry" />
        </mxCell>
        <mxCell id="sDTh5_1ZTmzq6oT9WHvg-117" value="" style="endArrow=none;html=1;rounded=0;" edge="1" parent="1" source="sDTh5_1ZTmzq6oT9WHvg-106" target="sDTh5_1ZTmzq6oT9WHvg-116">
          <mxGeometry width="50" height="50" relative="1" as="geometry">
            <mxPoint x="710" y="763" as="sourcePoint" />
            <mxPoint x="790" y="727" as="targetPoint" />
          </mxGeometry>
        </mxCell>
        <mxCell id="sDTh5_1ZTmzq6oT9WHvg-118" value="research" style="rounded=1;whiteSpace=wrap;html=1;" vertex="1" parent="1">
          <mxGeometry x="1140" y="540" width="120" height="60" as="geometry" />
        </mxCell>
        <mxCell id="sDTh5_1ZTmzq6oT9WHvg-119" value="" style="endArrow=none;html=1;rounded=0;" edge="1" parent="1" source="sDTh5_1ZTmzq6oT9WHvg-116" target="sDTh5_1ZTmzq6oT9WHvg-118">
          <mxGeometry width="50" height="50" relative="1" as="geometry">
            <mxPoint x="650" y="760" as="sourcePoint" />
            <mxPoint x="650" y="610" as="targetPoint" />
          </mxGeometry>
        </mxCell>
        <mxCell id="sDTh5_1ZTmzq6oT9WHvg-120" value="requirements" style="rounded=1;whiteSpace=wrap;html=1;" vertex="1" parent="1">
          <mxGeometry x="1140" y="760" width="120" height="60" as="geometry" />
        </mxCell>
        <mxCell id="sDTh5_1ZTmzq6oT9WHvg-121" value="" style="endArrow=none;html=1;rounded=0;" edge="1" parent="1" source="sDTh5_1ZTmzq6oT9WHvg-109" target="sDTh5_1ZTmzq6oT9WHvg-120">
          <mxGeometry width="50" height="50" relative="1" as="geometry">
            <mxPoint x="710" y="772.5806451612902" as="sourcePoint" />
            <mxPoint x="900" y="717.4193548387098" as="targetPoint" />
          </mxGeometry>
        </mxCell>
        <mxCell id="sDTh5_1ZTmzq6oT9WHvg-122" value="" style="endArrow=none;html=1;rounded=0;" edge="1" parent="1" source="sDTh5_1ZTmzq6oT9WHvg-107" target="sDTh5_1ZTmzq6oT9WHvg-120">
          <mxGeometry width="50" height="50" relative="1" as="geometry">
            <mxPoint x="1020" y="723.9999999999995" as="sourcePoint" />
            <mxPoint x="1150" y="776" as="targetPoint" />
          </mxGeometry>
        </mxCell>
        <mxCell id="sDTh5_1ZTmzq6oT9WHvg-123" value="" style="endArrow=none;html=1;rounded=0;" edge="1" parent="1" source="sDTh5_1ZTmzq6oT9WHvg-108" target="sDTh5_1ZTmzq6oT9WHvg-120">
          <mxGeometry width="50" height="50" relative="1" as="geometry">
            <mxPoint x="1020" y="800" as="sourcePoint" />
            <mxPoint x="1150" y="800" as="targetPoint" />
          </mxGeometry>
        </mxCell>
        <mxCell id="sDTh5_1ZTmzq6oT9WHvg-125" value="" style="endArrow=none;html=1;rounded=0;" edge="1" parent="1" source="sDTh5_1ZTmzq6oT9WHvg-118" target="sDTh5_1ZTmzq6oT9WHvg-120">
          <mxGeometry width="50" height="50" relative="1" as="geometry">
            <mxPoint x="1020" y="723.9999999999995" as="sourcePoint" />
            <mxPoint x="1150" y="776" as="targetPoint" />
          </mxGeometry>
        </mxCell>
      </root>
    </mxGraphModel>
  </diagram>
</mxfile>
